<svg width="49" height="50" viewBox="0 0 49 50" fill="none" xmlns="http://www.w3.org/2000/svg">
<path d="M30.625 25C30.625 28.4517 27.8827 31.25 24.5 31.25C21.1173 31.25 18.375 28.4517 18.375 25C18.375 21.5482 21.1173 18.75 24.5 18.75C27.8827 18.75 30.625 21.5482 30.625 25Z" fill="#E0E0E0"/>
<path fill-rule="evenodd" clip-rule="evenodd" d="M24.5 39.5833C32.3931 39.5833 38.7917 33.0541 38.7917 25C38.7917 16.9458 32.3931 10.4166 24.5 10.4166C16.6069 10.4166 10.2083 16.9458 10.2083 25C10.2083 33.0541 16.6069 39.5833 24.5 39.5833ZM24.5 35.4166C30.1379 35.4166 34.7083 30.7529 34.7083 25C34.7083 19.247 30.1379 14.5833 24.5 14.5833C18.8621 14.5833 14.2917 19.247 14.2917 25C14.2917 30.7529 18.8621 35.4166 24.5 35.4166Z" fill="#E0E0E0"/>
</svg>
