<svg width="50" height="50" viewBox="0 0 50 50" fill="none" xmlns="http://www.w3.org/2000/svg">
<path d="M47.24 5.65577e-08H2.75757C1.23444 0.000915588 -0.000305119 1.23627 5.65577e-08 2.76001V47.2424C0.000915588 48.7656 1.23627 50.0003 2.76001 50H26.709V30.6641H20.2148V23.0957H26.709V17.5259C26.709 11.0669 30.6522 7.55127 36.4139 7.55127C39.1736 7.55127 41.5451 7.75696 42.2363 7.84882V14.5996H38.2632C35.1285 14.5996 34.5215 16.0892 34.5215 18.2755V23.0957H42.0166L41.04 30.6641H34.5215V50H47.24C48.764 50.0003 49.9997 48.7653 50 47.2412C50 47.2409 50 47.2406 50 47.24V2.75757C49.9994 1.23444 48.7637 -0.000305119 47.24 5.65577e-08Z" fill="black"/>
</svg>
