<svg width="58" height="58" viewBox="0 0 58 58" fill="none" xmlns="http://www.w3.org/2000/svg">
<g clip-path="url(#clip0)" filter="url(#filter0_d)">
<path d="M53.9511 14.7001C53.834 12.0434 53.4044 10.217 52.7889 8.63435C52.154 6.95441 51.1773 5.45036 49.8976 4.20004C48.6473 2.93026 47.1333 1.94359 45.4728 1.31862C43.881 0.703186 42.0641 0.273567 39.4074 0.156433C36.7309 0.0293789 35.8812 0 29.0927 0C22.3043 0 21.4546 0.0293789 18.788 0.146513C16.1313 0.263647 14.3048 0.693647 12.7226 1.3087C11.0422 1.94359 9.53819 2.92034 8.28787 4.20004C7.01809 5.45036 6.0318 6.96433 5.40645 8.62481C4.79102 10.217 4.3614 12.0335 4.24426 14.6902C4.11721 17.3668 4.08783 18.2164 4.08783 25.0049C4.08783 31.7933 4.11721 32.643 4.23434 35.3096C4.35148 37.9663 4.78148 39.7928 5.39691 41.3754C6.0318 43.0554 7.01809 44.5594 8.28787 45.8097C9.53819 47.0795 11.0522 48.0662 12.7126 48.6912C14.3048 49.3066 16.1214 49.7362 18.7784 49.8533C21.4447 49.9709 22.2947 49.9998 29.0832 49.9998C35.8716 49.9998 36.7213 49.9709 39.3879 49.8533C42.0446 49.7362 43.8711 49.3066 45.4533 48.6912C48.8136 47.392 51.4703 44.7353 52.7695 41.3754C53.3845 39.7832 53.8145 37.9663 53.9316 35.3096C54.0488 32.643 54.0782 31.7933 54.0782 25.0049C54.0782 18.2164 54.0682 17.3668 53.9511 14.7001ZM49.4485 35.1143C49.3409 37.5562 48.9307 38.8748 48.5889 39.7539C47.7487 41.9321 46.0199 43.6609 43.8417 44.501C42.9626 44.8429 41.6345 45.2531 39.2021 45.3603C36.5649 45.4778 35.7739 45.5068 29.1026 45.5068C22.4313 45.5068 21.6305 45.4778 19.0028 45.3603C16.5609 45.2531 15.2423 44.8429 14.3632 44.501C13.2792 44.1004 12.2926 43.4655 11.4917 42.6353C10.6615 41.8245 10.0266 40.8477 9.62595 39.7638C9.28408 38.8847 8.87392 37.5562 8.76671 35.1242C8.64919 32.487 8.6202 31.6956 8.6202 25.0243C8.6202 18.353 8.64919 17.5522 8.76671 14.9249C8.87392 12.483 9.28408 11.1644 9.62595 10.2853C10.0266 9.20094 10.6615 8.21465 11.5016 7.4134C12.312 6.58316 13.2888 5.94828 14.3731 5.54804C15.2522 5.20617 16.5807 4.79601 19.0127 4.68842C21.6499 4.57128 22.4413 4.5419 29.1122 4.5419C35.7934 4.5419 36.5843 4.57128 39.212 4.68842C41.6539 4.79601 42.9725 5.20617 43.8516 5.54804C44.9356 5.94828 45.9223 6.58316 46.7231 7.4134C47.5534 8.22419 48.1883 9.20094 48.5889 10.2853C48.9307 11.1644 49.3409 12.4925 49.4485 14.9249C49.5656 17.5621 49.595 18.353 49.595 25.0243C49.595 31.6956 49.5656 32.477 49.4485 35.1143Z" fill="black"/>
<path d="M29.0927 12.1605C22.0017 12.1605 16.2484 17.9134 16.2484 25.0048C16.2484 32.0962 22.0017 37.8491 29.0927 37.8491C36.1841 37.8491 41.937 32.0962 41.937 25.0048C41.937 17.9134 36.1841 12.1605 29.0927 12.1605ZM29.0927 33.3366C24.4924 33.3366 20.7609 29.6055 20.7609 25.0048C20.7609 20.4042 24.4924 16.673 29.0927 16.673C33.6934 16.673 37.4245 20.4042 37.4245 25.0048C37.4245 29.6055 33.6934 33.3366 29.0927 33.3366Z" fill="black"/>
<path d="M45.4438 11.6527C45.4438 13.3086 44.1011 14.6513 42.4449 14.6513C40.7889 14.6513 39.4463 13.3086 39.4463 11.6527C39.4463 9.99645 40.7889 8.65417 42.4449 8.65417C44.1011 8.65417 45.4438 9.99645 45.4438 11.6527Z" fill="black"/>
</g>
<defs>
<filter id="filter0_d" x="0" y="0" width="58" height="58" filterUnits="userSpaceOnUse" color-interpolation-filters="sRGB">
<feFlood flood-opacity="0" result="BackgroundImageFix"/>
<feColorMatrix in="SourceAlpha" type="matrix" values="0 0 0 0 0 0 0 0 0 0 0 0 0 0 0 0 0 0 127 0"/>
<feOffset dy="4"/>
<feGaussianBlur stdDeviation="2"/>
<feColorMatrix type="matrix" values="0 0 0 0 0 0 0 0 0 0 0 0 0 0 0 0 0 0 0.25 0"/>
<feBlend mode="normal" in2="BackgroundImageFix" result="effect1_dropShadow"/>
<feBlend mode="normal" in="SourceGraphic" in2="effect1_dropShadow" result="shape"/>
</filter>
<clipPath id="clip0">
<rect width="50" height="50" fill="white" transform="translate(4)"/>
</clipPath>
</defs>
</svg>
