<svg width="88" height="100" viewBox="0 0 88 100" fill="none" xmlns="http://www.w3.org/2000/svg">
<path d="M36.875 38.2805V44.1399H29.9609C28.6883 44.1399 27.6562 45.0145 27.6562 46.093V53.9055C27.6562 54.984 28.6883 55.8586 29.9609 55.8586H36.875V61.718C36.875 62.7965 37.907 63.6711 39.1797 63.6711H48.3984C49.6711 63.6711 50.7031 62.7965 50.7031 61.718V55.8586H57.6172C58.8898 55.8586 59.9219 54.984 59.9219 53.9055V46.093C59.9219 45.0145 58.8898 44.1399 57.6172 44.1399H50.7031V38.2805C50.7031 37.202 49.6711 36.3274 48.3984 36.3274H39.1797C37.9068 36.3274 36.875 37.2018 36.875 38.2805ZM41.4844 46.093V40.2336H46.0937V46.093C46.0937 47.1715 47.1258 48.0461 48.3984 48.0461H55.3125V51.9524H48.3984C47.1258 51.9524 46.0937 52.827 46.0937 53.9055V59.7649H41.4844V53.9055C41.4844 52.827 40.4523 51.9524 39.1797 51.9524H32.2656V48.0461H39.1797C40.4523 48.0461 41.4844 47.1715 41.4844 46.093Z" fill="black"/>
<path d="M76.0547 26.5129C76.0547 25.5619 75.2462 24.749 74.1402 24.5881C63.6216 23.0566 53.6199 19.2795 45.2159 13.6646C44.3791 13.1058 43.1988 13.1058 42.362 13.6646C33.9579 19.2795 23.9563 23.0566 13.4377 24.5881C12.3317 24.749 11.5232 25.5619 11.5232 26.5129V37.1262C11.5232 57.3959 23.4479 77.0867 42.4828 88.1806C42.8762 88.4099 43.3325 88.5246 43.7888 88.5246C44.2452 88.5246 44.7015 88.4099 45.0949 88.1806C64.1093 77.0986 76.0547 57.4176 76.0547 37.126V26.5129ZM71.4453 37.126C71.4453 55.7506 60.8868 73.6478 43.7891 84.1795C26.691 73.6478 16.1328 55.7506 16.1328 37.126V28.1349C26.1172 26.4305 35.609 22.8357 43.7891 17.6599C51.9691 22.8357 61.4609 26.4305 71.4453 28.1349V37.126Z" fill="black"/>
<path d="M74.2109 74.0227C75.4838 74.0227 76.5156 73.1482 76.5156 72.0695C76.5156 70.9908 75.4838 70.1164 74.2109 70.1164C72.9381 70.1164 71.9062 70.9908 71.9062 72.0695C71.9062 73.1482 72.9381 74.0227 74.2109 74.0227Z" fill="black"/>
<path d="M85.2734 15.6248C71.0272 15.6248 57.6333 10.9234 47.5598 2.38633L45.4187 0.571875C44.5185 -0.190625 43.0596 -0.190625 42.1592 0.571875L40.0181 2.38633C29.9446 10.9232 16.5509 15.6248 2.30469 15.6248C1.03204 15.6248 0 16.4994 0 17.5779V37.1268C0 62.6125 16.2801 87.3299 42.6699 99.7539C43.0179 99.9178 43.4035 99.9998 43.7891 99.9998C44.1746 99.9998 44.5604 99.9178 44.9082 99.7539C54.8679 95.065 63.4755 88.6369 70.4916 80.6486C71.2517 79.7834 71.0401 78.5598 70.0189 77.9158C68.998 77.2717 67.5541 77.4512 66.7942 78.3164C60.4356 85.5559 52.7008 91.434 43.7895 95.8016C19.9468 84.1016 4.60938 61.1973 4.60938 37.1266V19.4928C18.6707 19.0252 32.6302 14.1717 43.2777 5.14844L43.7891 4.71504L44.3005 5.14844C54.3731 13.6846 68.1012 18.9984 82.9688 19.4928V37.1266C82.9688 46.1389 80.8696 55.0008 76.7297 63.4658C76.2425 64.4625 76.8007 65.6051 77.9763 66.018C79.1526 66.4307 80.5004 65.958 80.9879 64.9615C85.3608 56.0199 87.5781 46.6549 87.5781 37.1266V17.5779C87.5781 16.4992 86.5461 15.6248 85.2734 15.6248Z" fill="black"/>
</svg>
