<svg width="24" height="29" viewBox="0 0 24 29" fill="none" xmlns="http://www.w3.org/2000/svg">
<path fill-rule="evenodd" clip-rule="evenodd" d="M15.7399 16.169C18.1533 12.1711 17.8409 6.58503 14.8028 2.99832C11.4164 -0.999439 5.92608 -0.999439 2.53975 2.99832C-0.846584 6.99607 -0.846584 13.4777 2.53975 17.4755C5.5779 21.0622 10.3096 21.431 13.6961 18.5818L21.9562 28.3333L24 25.9205L15.7399 16.169ZM12.7589 5.41118C15.0165 8.07635 15.0165 12.3974 12.7589 15.0626C10.5014 17.7278 6.84114 17.7278 4.58358 15.0626C2.32603 12.3974 2.32603 8.07635 4.58358 5.41118C6.84114 2.74601 10.5014 2.74601 12.7589 5.41118Z" fill="#2E3A59"/>
</svg>
